<?xml version="1.0" encoding="UTF-8" standalone="no"?>
<!-- Created with Inkscape (http://www.inkscape.org/) -->

<svg
   xmlns:dc="http://purl.org/dc/elements/1.1/"
   xmlns:cc="http://creativecommons.org/ns#"
   xmlns:rdf="http://www.w3.org/1999/02/22-rdf-syntax-ns#"
   xmlns:svg="http://www.w3.org/2000/svg"
   xmlns="http://www.w3.org/2000/svg"
   xmlns:sodipodi="http://sodipodi.sourceforge.net/DTD/sodipodi-0.dtd"
   xmlns:inkscape="http://www.inkscape.org/namespaces/inkscape"
   width="210mm"
   height="297mm"
   id="svg2"
   version="1.1"
   inkscape:version="0.48.4 r9939"
   sodipodi:docname="graphics.svg">
  <defs
     id="defs4" />
  <sodipodi:namedview
     id="base"
     pagecolor="#ffffff"
     bordercolor="#666666"
     borderopacity="1.0"
     inkscape:pageopacity="0.0"
     inkscape:pageshadow="2"
     inkscape:zoom="1.4"
     inkscape:cx="246.69302"
     inkscape:cy="677.33405"
     inkscape:document-units="px"
     inkscape:current-layer="layer1"
     showgrid="true"
     inkscape:window-width="1920"
     inkscape:window-height="1017"
     inkscape:window-x="1912"
     inkscape:window-y="-8"
     inkscape:window-maximized="1">
    <inkscape:grid
       type="xygrid"
       id="grid2985" />
  </sodipodi:namedview>
  <metadata
     id="metadata7">
    <rdf:RDF>
      <cc:Work
         rdf:about="">
        <dc:format>image/svg+xml</dc:format>
        <dc:type
           rdf:resource="http://purl.org/dc/dcmitype/StillImage" />
        <dc:title></dc:title>
      </cc:Work>
    </rdf:RDF>
  </metadata>
  <g
     inkscape:label="Ebene 1"
     inkscape:groupmode="layer"
     id="layer1">
    <path
       style="fill:#ffeeaa;stroke:#000000;stroke-width:1px;stroke-linecap:butt;stroke-linejoin:miter;stroke-opacity:1"
       d="m 65,652.36218 0,-10 15,0 0,5 25,0 0,30"
       id="path2989"
       inkscape:connector-curvature="0"
       sodipodi:nodetypes="cccccc" />
    <path
       style="fill:#ffdd55;stroke:#000000;stroke-width:1px;stroke-linecap:butt;stroke-linejoin:miter;stroke-opacity:1"
       d="m 65,677.36218 -5,-25 40,0 5,25 z"
       id="path2987"
       inkscape:connector-curvature="0"
       sodipodi:nodetypes="ccccc" />
    <rect
       style="color:#000000;fill:#ff0000;fill-opacity:1;fill-rule:nonzero;stroke:none;stroke-width:1;marker:none;visibility:visible;display:inline;overflow:visible;enable-background:accumulate"
       id="rect3828"
       width="50"
       height="50"
       x="145"
       y="634.86218"
       inkscape:export-filename="D:\phi\ld42\web\res\zip.png"
       inkscape:export-xdpi="360"
       inkscape:export-ydpi="360" />
    <path
       style="color:#000000;fill:#ffdd55;stroke:none;stroke-width:0.06313454000000000;stroke-linecap:round;stroke-linejoin:round;stroke-miterlimit:4;stroke-opacity:1;stroke-dasharray:none;stroke-dashoffset:0;marker:none;visibility:visible;display:inline;overflow:visible;enable-background:accumulate;fill-opacity:1"
       d="m 150.23991,647.45519 c -0.41812,0.3986 -0.15168,1.04276 -0.22688,1.55469 0,9.28077 0,18.56155 0,27.84233 0.0396,0.55077 0.65669,0.52868 1.06736,0.49916 6.12405,0 12.2481,0 18.37215,0 0.55077,-0.0396 0.52869,-0.6567 0.49916,-1.06737 0,-9.47018 0,-18.94036 0,-28.41054 -0.0396,-0.55077 -0.65669,-0.52869 -1.06737,-0.49916 -6.12405,0 -12.2481,0 -18.37215,0 -0.0908,0.027 -0.18151,0.0539 -0.27227,0.0809 z"
       id="path3777"
       inkscape:connector-curvature="0" />
    <path
       style="fill:#ffeeaa;stroke:#000000;stroke-width:1px;stroke-linecap:butt;stroke-linejoin:miter;stroke-opacity:1;fill-opacity:1"
       d="m 150,647.36218 0,-5 15,0 0,5"
       id="path2993"
       inkscape:connector-curvature="0" />
    <path
       style="color:#000000;fill:#ffdd55;fill-opacity:1;fill-rule:nonzero;stroke:none;stroke-width:0.06313454000000000;stroke-linecap:round;stroke-linejoin:round;stroke-miterlimit:4;stroke-opacity:1;stroke-dasharray:none;stroke-dashoffset:0;marker:none;visibility:visible;display:inline;overflow:visible;enable-background:accumulate"
       d="m 185.27958,647.45519 c -0.41812,0.3986 -0.15168,1.04276 -0.22689,1.55469 0,9.28077 0,18.56155 0,27.84233 0.0396,0.55077 0.6567,0.52868 1.06737,0.49916 1.15404,-0.0236 2.32183,0.0474 3.46717,-0.036 0.57702,-0.17094 0.32306,-0.89895 0.37812,-1.34708 0,-9.36495 0,-18.72991 0,-28.09486 -0.0396,-0.55077 -0.6567,-0.52869 -1.06737,-0.49916 -1.15404,0.0236 -2.32183,-0.0474 -3.46717,0.036 -0.0504,0.015 -0.10082,0.0299 -0.15123,0.0449 z"
       id="path3779"
       inkscape:connector-curvature="0" />
    <path
       style="color:#000000;fill:#cccccc;fill-opacity:1;fill-rule:nonzero;stroke:none;stroke-width:0.06313454000000000;stroke-linecap:round;stroke-linejoin:round;stroke-miterlimit:4;stroke-opacity:1;stroke-dasharray:none;stroke-dashoffset:0;marker:none;visibility:visible;display:inline;overflow:visible;enable-background:accumulate"
       d="m 170.28753,647.46408 c -0.41812,0.3986 -0.15168,1.04276 -0.22689,1.55469 0,9.28078 0,18.56155 0,27.84233 0.0396,0.55077 0.6567,0.52868 1.06737,0.49916 2.79721,-0.012 5.60142,0.024 8.39428,-0.018 0.61625,-0.1108 0.40373,-0.85524 0.43864,-1.30193 -0.024,-1.09084 0.0481,-2.19566 -0.036,-3.27777 -0.17095,-0.57702 -0.89895,-0.32306 -1.34708,-0.37811 -1.20153,0 -2.40306,0 -3.60459,0 0,-1.68754 0,-3.37507 0,-5.0626 1.51544,-0.0121 3.03791,0.0241 4.54899,-0.018 0.61625,-0.11079 0.40373,-0.85523 0.43864,-1.30192 -0.0235,-1.06987 0.0473,-2.15346 -0.036,-3.21463 -0.17095,-0.57702 -0.89895,-0.32307 -1.34708,-0.37812 -1.20153,0 -2.40306,0 -3.60459,0 0,-1.68753 0,-3.37507 0,-5.0626 1.51544,-0.0121 3.03791,0.0241 4.54899,-0.018 0.61625,-0.1108 0.40373,-0.85524 0.43864,-1.30193 -0.024,-1.09083 0.0481,-2.19566 -0.036,-3.27776 -0.17095,-0.57702 -0.89895,-0.32307 -1.34708,-0.37812 -1.20153,0 -2.40306,0 -3.60459,0 -0.0121,-1.51544 0.0241,-3.03791 -0.018,-4.54899 -0.1108,-0.61625 -0.85524,-0.40373 -1.30193,-0.43864 -1.06987,0.0235 -2.15345,-0.0473 -3.21463,0.036 -0.0504,0.015 -0.10082,0.03 -0.15123,0.0449 z"
       id="path3005"
       inkscape:connector-curvature="0" />
    <path
       style="color:#000000;fill:#999999;fill-opacity:1;fill-rule:nonzero;stroke:none;stroke-width:0.06313454000000000;stroke-linecap:round;stroke-linejoin:round;stroke-miterlimit:4;stroke-opacity:1;stroke-dasharray:none;stroke-dashoffset:0;marker:none;visibility:visible;display:inline;overflow:visible;enable-background:accumulate"
       d="m 175.27516,647.46408 c -0.41812,0.3986 -0.15168,1.04276 -0.22689,1.55469 0.0238,0.98564 -0.048,1.98519 0.036,2.96209 0.17095,0.57702 0.89895,0.32307 1.34708,0.37812 1.20153,0 2.40306,0 3.60459,0 0,1.68753 0,3.37507 0,5.0626 -1.51544,0.0121 -3.03791,-0.0241 -4.54899,0.018 -0.61625,0.1108 -0.40373,0.85524 -0.43864,1.30193 0.0235,1.06987 -0.0473,2.15345 0.036,3.21463 0.17095,0.57702 0.89895,0.32306 1.34708,0.37812 1.20153,0 2.40306,0 3.60459,0 0,1.68753 0,3.37506 0,5.0626 -1.51544,0.0121 -3.03791,-0.0241 -4.54899,0.018 -0.61625,0.11079 -0.40373,0.85524 -0.43864,1.30192 0.0235,1.06987 -0.0473,2.15346 0.036,3.21464 0.17095,0.57702 0.89895,0.32306 1.34708,0.37811 1.20153,0 2.40306,0 3.60459,0 0.012,1.5365 -0.0239,3.07998 0.018,4.61213 0.1108,0.61625 0.85524,0.40373 1.30193,0.43864 1.06986,-0.0235 2.15345,0.0473 3.21463,-0.036 0.57702,-0.17095 0.32306,-0.89895 0.37811,-1.34708 0,-9.36496 0,-18.72992 0,-28.09487 -0.0396,-0.55077 -0.65669,-0.52868 -1.06736,-0.49916 -2.79722,0.012 -5.60142,-0.024 -8.39428,0.018 -0.0706,0.021 -0.14117,0.0419 -0.21175,0.0629 z"
       id="path3007"
       inkscape:connector-curvature="0" />
    <path
       style="fill:none;stroke:#000000;stroke-width:1px;stroke-linecap:butt;stroke-linejoin:miter;stroke-opacity:1;fill-opacity:1"
       d="m 150,647.36218 40,0 0,30 -40,0 z"
       id="path2991"
       inkscape:connector-curvature="0"
       sodipodi:nodetypes="ccccc" />
    <path
       style="fill:none;stroke:#000000;stroke-width:1px;stroke-linecap:butt;stroke-linejoin:miter;stroke-opacity:1"
       d="m 175,647.36218 0,5 5,0 0,5 -5,0 0,5 5,0 0,5 -5,0 0,5 5,0 0,5"
       id="path2995"
       inkscape:connector-curvature="0" />
    <path
       style="fill:none;stroke:#000000;stroke-width:1px;stroke-linecap:butt;stroke-linejoin:miter;stroke-opacity:1"
       d="m 185,647.36218 0,30"
       id="path2997"
       inkscape:connector-curvature="0" />
    <path
       style="fill:#cccccc;stroke:#000000;stroke-width:1px;stroke-linecap:butt;stroke-linejoin:miter;stroke-opacity:1"
       d="m 170,647.36218 0,25 0,5"
       id="path2999"
       inkscape:connector-curvature="0"
       sodipodi:nodetypes="ccc" />
    <rect
       style="color:#000000;fill:#ff0000;fill-opacity:1;fill-rule:nonzero;stroke:none;stroke-width:1;marker:none;visibility:visible;display:inline;overflow:visible;enable-background:accumulate"
       id="rect3828-1"
       width="50"
       height="50"
       x="207.5"
       y="639.86218"
       inkscape:export-filename="D:\phi\ld42\web\res\text.png"
       inkscape:export-xdpi="360"
       inkscape:export-ydpi="360" />
    <path
       style="color:#000000;fill:#ececec;stroke:none;stroke-width:1;marker:none;visibility:visible;display:inline;overflow:visible;enable-background:accumulate"
       d="m 215.22669,642.6726 c -0.34169,1.84203 -0.0462,3.81225 -0.14509,5.70313 0,12.79762 0,25.59523 0,38.39285 0.46129,1.00312 1.9373,0.28606 2.82366,0.50224 10.47619,0 20.95238,0 31.42857,0 1.00312,-0.46129 0.28606,-1.9373 0.50224,-2.82366 0,-10.4762 0,-20.95238 0,-31.42858 -0.46129,-1.00311 -1.9373,-0.28605 -2.82366,-0.50223 -2.39212,0 -4.78423,0 -7.17634,0 -0.048,-3.21541 0.0951,-6.47079 -0.0716,-9.66137 -0.66805,-0.73636 -2.00331,-0.1522 -2.93066,-0.33863 -7.08333,0 -14.16666,0 -21.25,0 -0.11904,0.0521 -0.23809,0.10417 -0.35714,0.15625 z"
       id="path3792"
       inkscape:connector-curvature="0" />
    <path
       style="fill:#b3b3b3;stroke:#000000;stroke-width:1px;stroke-linecap:butt;stroke-linejoin:miter;stroke-opacity:1"
       d="m 240,642.36218 0,10 10,0"
       id="path3790"
       inkscape:connector-curvature="0" />
    <path
       style="fill:none;stroke:#000000;stroke-width:1px;stroke-linecap:butt;stroke-linejoin:miter;stroke-opacity:1"
       d="m 215,642.36218 0,45 35,0 0,-35 -10,-10 z"
       id="path3788"
       inkscape:connector-curvature="0" />
    <path
       style="fill:none;stroke:#000000;stroke-width:1px;stroke-linecap:butt;stroke-linejoin:miter;stroke-opacity:1"
       d="m 220,682.36218 25,0"
       id="path3796"
       inkscape:connector-curvature="0" />
    <path
       style="fill:none;stroke:#000000;stroke-width:1px;stroke-linecap:butt;stroke-linejoin:miter;stroke-opacity:1"
       d="m 220,677.36218 25,0"
       id="path3798"
       inkscape:connector-curvature="0" />
    <path
       style="fill:none;stroke:#000000;stroke-width:1px;stroke-linecap:butt;stroke-linejoin:miter;stroke-opacity:1"
       d="m 220,672.36218 25,0"
       id="path3800"
       inkscape:connector-curvature="0" />
    <path
       style="fill:none;stroke:#000000;stroke-width:1px;stroke-linecap:butt;stroke-linejoin:miter;stroke-opacity:1"
       d="m 220,667.36218 25,0"
       id="path3802"
       inkscape:connector-curvature="0" />
    <path
       style="fill:none;stroke:#000000;stroke-width:1px;stroke-linecap:butt;stroke-linejoin:miter;stroke-opacity:1"
       d="m 220,662.36218 25,0"
       id="path3804"
       inkscape:connector-curvature="0" />
    <path
       style="fill:none;stroke:#000000;stroke-width:1px;stroke-linecap:butt;stroke-linejoin:miter;stroke-opacity:1"
       d="m 220,657.36218 25,0"
       id="path3806"
       inkscape:connector-curvature="0" />
    <path
       style="fill:none;stroke:#000000;stroke-width:1px;stroke-linecap:butt;stroke-linejoin:miter;stroke-opacity:1"
       d="m 220,647.36218 15,0"
       id="path3808"
       inkscape:connector-curvature="0" />
    <path
       style="fill:none;stroke:#000000;stroke-width:1px;stroke-linecap:butt;stroke-linejoin:miter;stroke-opacity:1"
       d="m 220,652.36218 15,0"
       id="path3810"
       inkscape:connector-curvature="0" />
    <rect
       style="color:#000000;fill:#ff0000;fill-opacity:1;fill-rule:nonzero;stroke:none;stroke-width:1;marker:none;visibility:visible;display:inline;overflow:visible;enable-background:accumulate"
       id="rect3828-7"
       width="50"
       height="50"
       x="262.5"
       y="634.86218"
       inkscape:export-filename="D:\phi\ld42\web\res\image.png"
       inkscape:export-xdpi="360"
       inkscape:export-ydpi="360" />
    <path
       style="fill:#ececec;fill-opacity:1;stroke:#000000;stroke-width:1px;stroke-linecap:butt;stroke-linejoin:miter;stroke-opacity:1"
       d="m 265,642.36218 0,35 45,0 0,-24.82143 -10,-10.17857 z"
       id="path3812"
       inkscape:connector-curvature="0"
       sodipodi:nodetypes="cccccc" />
    <path
       style="color:#000000;fill:#536c67;stroke:#000000;stroke-width:0.08928572000000000;stroke-linecap:round;stroke-linejoin:round;stroke-miterlimit:4;stroke-opacity:1;stroke-dasharray:none;stroke-dashoffset:0;marker:none;visibility:visible;display:inline;overflow:visible;enable-background:accumulate"
       d="m 294.761,657.73424 c -3.26866,3.21657 -6.49203,6.48465 -9.74331,9.72098 -1.58111,-1.55341 -3.11619,-3.17148 -4.72596,-4.68465 -0.63586,-0.33791 -1.00757,0.54488 -1.44914,0.85976 -4.26511,4.2651 -8.53021,8.53021 -12.79532,12.79532 -0.40482,0.48504 0.19733,1.01696 0.7115,0.85379 14.24107,0 28.48214,0 42.72321,0 0.77954,-0.15093 0.41929,-1.10222 0.49944,-1.66015 -0.0388,-1.05003 0.0784,-2.12627 -0.0583,-3.15986 -0.58203,-0.81289 -1.42493,-1.45764 -2.10708,-2.20587 -4.148,-4.148 -8.29599,-8.29599 -12.44398,-12.44398 -0.20713,-0.14203 -0.37535,-0.16026 -0.61105,-0.0753 z"
       id="path3824"
       inkscape:connector-curvature="0" />
    <path
       style="fill:#53676c;stroke:#000000;stroke-width:1;stroke-linecap:butt;stroke-linejoin:miter;stroke-opacity:1;stroke-miterlimit:2;stroke-dasharray:none"
       d="m 265,677.36218 15,-15 5,5 10,-10 15,15 0,5 z"
       id="path3816"
       inkscape:connector-curvature="0"
       sodipodi:nodetypes="ccccccc" />
    <path
       sodipodi:type="arc"
       style="color:#000000;fill:#ffdd55;fill-opacity:1;fill-rule:nonzero;stroke:#000000;stroke-width:1;stroke-opacity:1;marker:none;visibility:visible;display:inline;overflow:visible;enable-background:accumulate"
       id="path3820"
       sodipodi:cx="278"
       sodipodi:cy="655.36218"
       sodipodi:rx="5"
       sodipodi:ry="5"
       d="m 283,655.36218 a 5,5 0 1 1 -10,0 5,5 0 1 1 10,0 z"
       transform="translate(-3,-3)" />
    <path
       style="fill:#b3b3b3;stroke:#000000;stroke-width:1;stroke-linecap:butt;stroke-linejoin:miter;stroke-opacity:1;stroke-miterlimit:2;stroke-dasharray:none;fill-opacity:1"
       d="m 310,652.36218 -10,0 0,-10 z"
       id="path3826"
       inkscape:connector-curvature="0" />
    <rect
       style="color:#000000;fill:#ff0000;fill-opacity:1;fill-rule:nonzero;stroke:none;stroke-width:1;marker:none;visibility:visible;display:inline;overflow:visible;enable-background:accumulate"
       id="rect3987"
       width="80"
       height="50"
       x="160"
       y="797.36218"
       inkscape:export-filename="D:\phi\ld42\web\res\stapler1.png"
       inkscape:export-xdpi="359.25546"
       inkscape:export-ydpi="359.25546" />
    <path
       style="fill:#333333;stroke:#000000;stroke-width:1;stroke-linecap:butt;stroke-linejoin:miter;stroke-opacity:1;stroke-miterlimit:2;stroke-dasharray:none;fill-opacity:1"
       d="m 170,827.36218 0,5 10,10 0,-5"
       id="path3869"
       inkscape:connector-curvature="0" />
    <path
       style="fill:#333333;fill-opacity:1;stroke:#000000;stroke-width:1px;stroke-linecap:butt;stroke-linejoin:miter;stroke-opacity:1"
       d="m 180,837.36218 0,5 50,-15 0,-5"
       id="path3871"
       inkscape:connector-curvature="0"
       sodipodi:nodetypes="cccc" />
    <path
       style="fill:#666666;stroke:#000000;stroke-width:1;stroke-linecap:butt;stroke-linejoin:miter;stroke-opacity:1;fill-opacity:1;stroke-miterlimit:1.89999999999999990;stroke-dasharray:none"
       d="m 220,812.36218 -50,15 10,10 50,-15 z"
       id="path3861"
       inkscape:connector-curvature="0"
       sodipodi:nodetypes="ccccc" />
    <path
       style="fill:#cccccc;stroke:#000000;stroke-width:1px;stroke-linecap:butt;stroke-linejoin:miter;stroke-opacity:1"
       d="m 181,835.36218 6,-2 -7,-7 -6,2 z"
       id="path3877"
       inkscape:connector-curvature="0" />
    <path
       style="fill:none;stroke:#000000;stroke-width:1px;stroke-linecap:butt;stroke-linejoin:miter;stroke-opacity:1"
       d="m 178,828.36218 2,2"
       id="path3873"
       inkscape:connector-curvature="0" />
    <path
       style="fill:none;stroke:#000000;stroke-width:1px;stroke-linecap:butt;stroke-linejoin:miter;stroke-opacity:1"
       d="m 181,831.36218 2,2"
       id="path3875"
       inkscape:connector-curvature="0" />
    <path
       style="fill:#333333;stroke:#000000;stroke-width:1;stroke-linecap:butt;stroke-linejoin:miter;stroke-miterlimit:2;stroke-opacity:1;stroke-dasharray:none"
       d="m 170,810.36218 0,7 10,10 0,-10"
       id="path3867"
       inkscape:connector-curvature="0"
       sodipodi:nodetypes="cccc" />
    <path
       style="fill:#333333;stroke:#000000;stroke-width:1;stroke-linecap:butt;stroke-linejoin:miter;stroke-opacity:1;stroke-miterlimit:2;stroke-dasharray:none"
       d="m 180,817.36218 0,10 45,-5 0,-10"
       id="path3865"
       inkscape:connector-curvature="0"
       sodipodi:nodetypes="cccc" />
    <path
       style="fill:#666666;stroke:#000000;stroke-width:1;stroke-linecap:butt;stroke-linejoin:miter;stroke-miterlimit:2;stroke-opacity:1;stroke-dasharray:none"
       d="m 225,812.36218 -10,-10 -45,8 10,10 z"
       id="path3863"
       inkscape:connector-curvature="0"
       sodipodi:nodetypes="ccccc" />
    <path
       style="fill:#333333;fill-opacity:1;stroke:#000000;stroke-width:1px;stroke-linecap:butt;stroke-linejoin:miter;stroke-opacity:1"
       d="m 227,826.36218 -5,-10 -5,1 -4,13 z"
       id="path3879"
       inkscape:connector-curvature="0"
       sodipodi:nodetypes="ccccc" />
    <path
       sodipodi:type="arc"
       style="color:#000000;fill:#f9f9f9;fill-opacity:1;fill-rule:nonzero;stroke:#000000;stroke-width:1;stroke-opacity:1;marker:none;visibility:visible;display:inline;overflow:visible;enable-background:accumulate"
       id="path3881"
       sodipodi:cx="185"
       sodipodi:cy="822.36218"
       sodipodi:rx="6"
       sodipodi:ry="5"
       d="m 191,822.36218 a 6,5 0 1 1 -12,0 6,5 0 1 1 12,0 z" />
    <path
       transform="translate(16,-2)"
       sodipodi:type="arc"
       style="color:#000000;fill:#f9f9f9;fill-opacity:1;fill-rule:nonzero;stroke:#000000;stroke-width:1;stroke-opacity:1;marker:none;visibility:visible;display:inline;overflow:visible;enable-background:accumulate"
       id="path3881-6"
       sodipodi:cx="185"
       sodipodi:cy="822.36218"
       sodipodi:rx="6"
       sodipodi:ry="5"
       d="m 191,822.36218 a 6,5 0 1 1 -12,0 6,5 0 1 1 12,0 z" />
    <path
       sodipodi:type="arc"
       style="color:#000000;fill:#000000;fill-opacity:1;fill-rule:nonzero;stroke:none;stroke-width:1;stroke-linecap:round;stroke-linejoin:round;stroke-miterlimit:1.89999998000000000;stroke-opacity:1;stroke-dasharray:none;stroke-dashoffset:0;marker:none;visibility:visible;display:inline;overflow:visible;enable-background:accumulate"
       id="path3916"
       sodipodi:cx="200"
       sodipodi:cy="819.86218"
       sodipodi:rx="3"
       sodipodi:ry="2.5"
       d="m 203,819.86218 a 3,2.5 0 1 1 -6,0 3,2.5 0 1 1 6,0 z" />
    <path
       sodipodi:type="arc"
       style="color:#000000;fill:#000000;fill-opacity:1;fill-rule:nonzero;stroke:none;stroke-width:1;stroke-linecap:round;stroke-linejoin:round;stroke-miterlimit:1.89999998000000000;stroke-opacity:1;stroke-dasharray:none;stroke-dashoffset:0;marker:none;visibility:visible;display:inline;overflow:visible;enable-background:accumulate"
       id="path3918"
       sodipodi:cx="184"
       sodipodi:cy="821.86218"
       sodipodi:rx="3"
       sodipodi:ry="2.5"
       d="m 187,821.86218 a 3,2.5 0 1 1 -6,0 3,2.5 0 1 1 6,0 z" />
    <path
       style="fill:none;stroke:#000000;stroke-width:1px;stroke-linecap:butt;stroke-linejoin:miter;stroke-opacity:1"
       d="m 197,812.36218 9,1"
       id="path3920"
       inkscape:connector-curvature="0"
       sodipodi:nodetypes="cc" />
    <path
       style="fill:none;stroke:#000000;stroke-width:1px;stroke-linecap:butt;stroke-linejoin:miter;stroke-opacity:1"
       d="m 187,813.36218 -9,3"
       id="path3922"
       inkscape:connector-curvature="0"
       sodipodi:nodetypes="cc" />
    <rect
       style="color:#000000;fill:#ff0000;fill-opacity:1;fill-rule:nonzero;stroke:none;stroke-width:1;marker:none;visibility:visible;display:inline;overflow:visible;enable-background:accumulate"
       id="rect3987-0"
       width="80"
       height="50"
       x="250"
       y="797.36218"
       inkscape:export-filename="D:\phi\ld42\web\res\stapler2.png"
       inkscape:export-xdpi="359.25546"
       inkscape:export-ydpi="359.25546" />
    <path
       style="fill:#333333;fill-opacity:1;stroke:#000000;stroke-width:1;stroke-linecap:butt;stroke-linejoin:miter;stroke-miterlimit:2;stroke-opacity:1;stroke-dasharray:none"
       d="m 260,823.36218 0,5 10,10 0,-5"
       id="path3869-7"
       inkscape:connector-curvature="0"
       sodipodi:nodetypes="cccc" />
    <path
       style="fill:#333333;fill-opacity:1;stroke:#000000;stroke-width:1px;stroke-linecap:butt;stroke-linejoin:miter;stroke-opacity:1"
       d="m 270,833.36218 0,5 50,-11 0,-5"
       id="path3871-1"
       inkscape:connector-curvature="0"
       sodipodi:nodetypes="cccc" />
    <path
       style="fill:#666666;fill-opacity:1;stroke:#000000;stroke-width:1;stroke-linecap:butt;stroke-linejoin:miter;stroke-miterlimit:1.89999998;stroke-opacity:1;stroke-dasharray:none"
       d="m 310,812.36218 -50,11 10,10 50,-11 z"
       id="path3861-5"
       inkscape:connector-curvature="0"
       sodipodi:nodetypes="ccccc" />
    <path
       style="fill:#cccccc;stroke:#000000;stroke-width:1px;stroke-linecap:butt;stroke-linejoin:miter;stroke-opacity:1"
       d="m 271,831.36218 6,-2 -7,-7 -6,2 z"
       id="path3877-5"
       inkscape:connector-curvature="0" />
    <path
       style="fill:none;stroke:#000000;stroke-width:1px;stroke-linecap:butt;stroke-linejoin:miter;stroke-opacity:1"
       d="m 268,824.36218 2,2"
       id="path3873-4"
       inkscape:connector-curvature="0" />
    <path
       style="fill:none;stroke:#000000;stroke-width:1px;stroke-linecap:butt;stroke-linejoin:miter;stroke-opacity:1"
       d="m 271,827.36218 2,2"
       id="path3875-0"
       inkscape:connector-curvature="0" />
    <path
       style="fill:#333333;stroke:#000000;stroke-width:1;stroke-linecap:butt;stroke-linejoin:miter;stroke-miterlimit:2;stroke-opacity:1;stroke-dasharray:none"
       d="m 260,810.36218 0,7 10,10 0,-10"
       id="path3867-2"
       inkscape:connector-curvature="0"
       sodipodi:nodetypes="cccc" />
    <path
       style="fill:#333333;stroke:#000000;stroke-width:1;stroke-linecap:butt;stroke-linejoin:miter;stroke-miterlimit:2;stroke-opacity:1;stroke-dasharray:none"
       d="m 270,817.36218 0,10 45,-5 0,-10"
       id="path3865-6"
       inkscape:connector-curvature="0"
       sodipodi:nodetypes="cccc" />
    <path
       style="fill:#666666;stroke:#000000;stroke-width:1;stroke-linecap:butt;stroke-linejoin:miter;stroke-miterlimit:2;stroke-opacity:1;stroke-dasharray:none"
       d="m 315,812.36218 -10,-10 -45,8 10,10 z"
       id="path3863-0"
       inkscape:connector-curvature="0"
       sodipodi:nodetypes="ccccc" />
    <path
       style="fill:#333333;fill-opacity:1;stroke:#000000;stroke-width:1px;stroke-linecap:butt;stroke-linejoin:miter;stroke-opacity:1"
       d="m 317,826.36218 -5,-10 -5,1 -4,12 z"
       id="path3879-6"
       inkscape:connector-curvature="0"
       sodipodi:nodetypes="ccccc" />
    <path
       transform="translate(90,2.6171874e-6)"
       sodipodi:type="arc"
       style="color:#000000;fill:#f9f9f9;fill-opacity:1;fill-rule:nonzero;stroke:#000000;stroke-width:1;stroke-opacity:1;marker:none;visibility:visible;display:inline;overflow:visible;enable-background:accumulate"
       id="path3881-1"
       sodipodi:cx="185"
       sodipodi:cy="822.36218"
       sodipodi:rx="6"
       sodipodi:ry="5"
       d="m 191,822.36218 a 6,5 0 1 1 -12,0 6,5 0 1 1 12,0 z" />
    <path
       transform="translate(106,-1.9999974)"
       sodipodi:type="arc"
       style="color:#000000;fill:#f9f9f9;fill-opacity:1;fill-rule:nonzero;stroke:#000000;stroke-width:1;stroke-opacity:1;marker:none;visibility:visible;display:inline;overflow:visible;enable-background:accumulate"
       id="path3881-6-1"
       sodipodi:cx="185"
       sodipodi:cy="822.36218"
       sodipodi:rx="6"
       sodipodi:ry="5"
       d="m 191,822.36218 a 6,5 0 1 1 -12,0 6,5 0 1 1 12,0 z" />
    <path
       transform="translate(90,2.6171874e-6)"
       sodipodi:type="arc"
       style="color:#000000;fill:#000000;fill-opacity:1;fill-rule:nonzero;stroke:none;stroke-width:1;marker:none;visibility:visible;display:inline;overflow:visible;enable-background:accumulate"
       id="path3916-1"
       sodipodi:cx="200"
       sodipodi:cy="819.86218"
       sodipodi:rx="3"
       sodipodi:ry="2.5"
       d="m 203,819.86218 a 3,2.5 0 1 1 -6,0 3,2.5 0 1 1 6,0 z" />
    <path
       transform="translate(90,2.6171874e-6)"
       sodipodi:type="arc"
       style="color:#000000;fill:#000000;fill-opacity:1;fill-rule:nonzero;stroke:none;stroke-width:1;marker:none;visibility:visible;display:inline;overflow:visible;enable-background:accumulate"
       id="path3918-7"
       sodipodi:cx="184"
       sodipodi:cy="821.86218"
       sodipodi:rx="3"
       sodipodi:ry="2.5"
       d="m 187,821.86218 a 3,2.5 0 1 1 -6,0 3,2.5 0 1 1 6,0 z" />
    <path
       style="fill:none;stroke:#000000;stroke-width:1px;stroke-linecap:butt;stroke-linejoin:miter;stroke-opacity:1"
       d="m 287,812.36218 9,0"
       id="path3920-3"
       inkscape:connector-curvature="0"
       sodipodi:nodetypes="cc" />
    <path
       style="fill:none;stroke:#000000;stroke-width:1px;stroke-linecap:butt;stroke-linejoin:miter;stroke-opacity:1"
       d="m 277,813.36218 -9,2"
       id="path3922-0"
       inkscape:connector-curvature="0"
       sodipodi:nodetypes="cc" />
    <rect
       style="color:#000000;fill:#ff0000;fill-opacity:1;fill-rule:nonzero;stroke:none;stroke-width:1;marker:none;visibility:visible;display:inline;overflow:visible;enable-background:accumulate"
       id="rect3987-1"
       width="330"
       height="250"
       x="160"
       y="242.36218"
       inkscape:export-filename="D:\phi\ld42\web\res\crack.png"
       inkscape:export-xdpi="359.25546"
       inkscape:export-ydpi="359.25546" />
    <path
       style="fill:none;stroke:#000000;stroke-width:2;stroke-linecap:butt;stroke-linejoin:miter;stroke-opacity:1;stroke-miterlimit:4;stroke-dasharray:none"
       d="m 230,242.36218 45,70 -30,70 50,110"
       id="path3065"
       inkscape:connector-curvature="0" />
    <path
       style="fill:none;stroke:#000000;stroke-width:2;stroke-linecap:butt;stroke-linejoin:miter;stroke-opacity:1;stroke-miterlimit:4;stroke-dasharray:none"
       d="m 261,417.36218 -61,35 -5,40"
       id="path3067"
       inkscape:connector-curvature="0"
       sodipodi:nodetypes="ccc" />
    <path
       style="fill:none;stroke:#000000;stroke-width:2;stroke-linecap:butt;stroke-linejoin:miter;stroke-opacity:1;stroke-miterlimit:4;stroke-dasharray:none"
       d="m 260,347.36218 -100,-35"
       id="path3069"
       inkscape:connector-curvature="0" />
    <path
       style="fill:none;stroke:#000000;stroke-width:2;stroke-linecap:butt;stroke-linejoin:miter;stroke-opacity:1;stroke-miterlimit:4;stroke-dasharray:none"
       d="m 285,470.36218 85,-58 0,-105 75,-65"
       id="path3071"
       inkscape:connector-curvature="0"
       sodipodi:nodetypes="cccc" />
    <path
       style="fill:none;stroke:#000000;stroke-width:2;stroke-linecap:butt;stroke-linejoin:miter;stroke-opacity:1;stroke-miterlimit:4;stroke-dasharray:none"
       d="m 370,362.36218 65,-15 55,50"
       id="path3073"
       inkscape:connector-curvature="0" />
    <path
       style="fill:none;stroke:#000000;stroke-width:2;stroke-linecap:butt;stroke-linejoin:miter;stroke-opacity:1;stroke-miterlimit:4;stroke-dasharray:none"
       d="m 275,312.36218 35,30 60,5"
       id="path3075"
       inkscape:connector-curvature="0"
       sodipodi:nodetypes="ccc" />
    <path
       style="fill:none;stroke:#000000;stroke-width:2;stroke-linecap:butt;stroke-linejoin:miter;stroke-opacity:1;stroke-miterlimit:4;stroke-dasharray:none"
       d="m 355,422.36218 -5,-15 20,-5"
       id="path3077"
       inkscape:connector-curvature="0"
       sodipodi:nodetypes="ccc" />
    <path
       style="fill:none;stroke:#000000;stroke-width:2;stroke-linecap:butt;stroke-linejoin:miter;stroke-opacity:1;stroke-miterlimit:4;stroke-dasharray:none"
       d="m 269,327.36218 16,-6"
       id="path3079"
       inkscape:connector-curvature="0" />
    <path
       style="fill:none;stroke:#000000;stroke-width:2;stroke-linecap:butt;stroke-linejoin:miter;stroke-opacity:1;stroke-miterlimit:4;stroke-dasharray:none"
       d="m 480,387.36218 -30,40 40,40"
       id="path3081"
       inkscape:connector-curvature="0" />
    <path
       style="fill:none;stroke:#000000;stroke-width:2;stroke-linecap:butt;stroke-linejoin:miter;stroke-opacity:1;stroke-miterlimit:4;stroke-dasharray:none"
       d="m 475,394.36218 -16,-25"
       id="path3083"
       inkscape:connector-curvature="0" />
  </g>
</svg>
